<?xml version="1.0" standalone="no"?>
<!DOCTYPE svg PUBLIC "-//W3C//DTD SVG 20010904//EN"
 "http://www.w3.org/TR/2001/REC-SVG-20010904/DTD/svg10.dtd">
<svg version="1.0" xmlns="http://www.w3.org/2000/svg"
 width="416.000000pt" height="416.000000pt" viewBox="0 0 416.000000 416.000000"
 preserveAspectRatio="xMidYMid meet">
<metadata>
Created by potrace 1.14, written by Peter Selinger 2001-2017
</metadata>
<g transform="translate(0.000000,416.000000) scale(0.100000,-0.100000)"
fill="#000000" stroke="none">
<path d="M0 2080 l0 -2080 52 0 52 0 -32 33 -32 33 0 1940 0 1940 33 32 33 32
1261 0 1262 0 6 21 c11 34 68 91 110 110 39 18 2 19 -1352 19 l-1393 0 0
-2080z"/>
<path d="M2910 4149 c85 -34 147 -133 137 -220 -10 -82 -56 -145 -132 -180
-89 -41 -204 -4 -260 83 l-30 47 -1227 0 -1228 1 0 -1875 0 -1875 1845 0 1845
0 0 1085 0 1085 -37 19 c-49 25 -77 55 -102 111 -36 80 -22 157 41 226 102
110 275 86 342 -47 53 -108 16 -232 -86 -285 l-28 -15 0 -1121 0 -1122 -32
-33 -32 -33 117 0 117 0 0 2080 0 2080 -637 -1 c-430 0 -630 -3 -613 -10z
m-1313 -681 l33 -32 0 -457 c0 -523 -1 -528 -72 -529 -58 0 -58 1 -58 487 l0
443 -289 0 c-288 0 -290 0 -305 22 -21 30 -20 54 4 78 19 19 33 20 337 20
l317 0 33 -32z m1905 5 l28 -27 0 -1187 0 -1187 -36 -32 c-36 -31 -39 -32
-114 -28 -84 3 -120 22 -120 61 0 39 28 57 92 57 l58 0 0 1125 0 1125 -300 0
-301 0 -25 25 c-18 19 -23 31 -19 48 14 46 19 47 374 47 l335 0 28 -27z m-365
-215 l32 -31 -6 -1331 -5 -1331 -31 -33 -31 -32 -336 0 -336 0 -32 33 -33 34
3 346 3 346 34 35 35 36 118 0 118 0 0 440 0 440 -737 0 -737 0 -33 32 -33 32
0 443 0 443 -250 0 -250 0 0 -1125 0 -1125 85 0 85 0 0 497 0 497 32 33 32 33
780 0 780 0 33 -32 33 -32 0 -170 0 -170 -32 -33 -32 -33 -563 0 -563 0 0
-468 0 -468 -33 -32 -34 -33 -351 3 c-312 3 -353 5 -368 20 -24 23 -21 68 6
90 20 17 48 18 341 18 l319 0 0 468 0 468 28 27 28 27 564 2 565 3 3 108 3
107 -721 0 -720 0 0 -492 0 -492 -32 -33 -32 -33 -150 0 c-149 0 -150 0 -178
27 l-28 27 0 1190 0 1190 27 28 27 28 315 0 315 0 33 -32 33 -32 0 -443 0
-443 737 0 737 0 28 -27 28 -27 0 -505 0 -505 -32 -33 -32 -33 -118 0 -118 0
0 -112 c0 -62 -3 -191 -7 -285 l-6 -173 275 0 275 0 6 152 c4 83 7 652 7 1265
l0 1113 -275 0 -275 0 0 -337 c0 -370 0 -373 -61 -373 -60 0 -59 -4 -59 403
l0 371 32 33 32 33 335 0 335 0 33 -32z m-1492 -1893 c24 -23 25 -29 25 -157
l0 -132 -32 -33 c-31 -32 -34 -33 -115 -33 -70 0 -86 3 -103 20 -11 11 -20 29
-20 40 0 38 35 60 95 60 l55 0 0 108 c0 112 3 122 35 140 28 16 33 15 60 -13z"/>
<path d="M2768 4053 c-112 -71 -44 -253 86 -229 103 19 138 144 61 216 -33 31
-109 38 -147 13z"/>
<path d="M3860 2622 c-77 -38 -91 -140 -26 -199 87 -80 216 -13 203 104 -5 50
-28 80 -74 99 -42 18 -61 18 -103 -4z"/>
</g>
</svg>
