<svg width="500" height="492" viewBox="0 0 500 492" fill="none" xmlns="http://www.w3.org/2000/svg">
<path fill-rule="evenodd" clip-rule="evenodd" d="M242.033 2.78439C240.029 4.15487 237.659 6.53097 236.096 8.71645C232.971 13.3996 227.034 21.2053 225.784 23.3908L224.847 24.3274C224.222 25.8885 222.247 28.9363 219.975 31.7743C194.961 67.1062 186.206 76.1737 155.877 108.066C126.799 138.396 96.76 167.518 58.3238 197.803C53.6337 200.93 50.206 203.526 49.2563 204.369C48.3067 205.213 47.3065 205.9 46.4423 206.558C44.9611 207.686 38.9371 212.501 37.0621 213.749C36.5934 214.062 31.2429 218.306 23.9299 223.13C9.23436 232.822 3.86679 235.115 1.73023 239.389C-2.33453 247.518 0.792205 253.771 10.7977 260.338C22.0539 267.529 19.4238 265.74 21.4286 267.216L22.3666 267.842C25.0905 269.846 31.5362 274.016 37.4673 278.437C44.1148 283.392 48.0189 286.792 51.0789 289.084C52.7671 290.349 51.1844 289.295 53.6112 290.877C55.405 292.046 55.9326 292.458 58.5705 294.25C60.6305 296.014 64.8793 299.51 68.3493 302.364L68.3504 302.365L69.122 303C91.3858 320.606 115.654 342.955 142.455 370.154C167.99 396.088 186.561 416.118 193.103 424.763C195.424 427.82 201.122 435.2 205.765 440.998C217.372 455.546 226.471 469.414 232.169 478.27C237.128 485.966 240.611 488.9 246.239 491.402C250.771 493.416 259.7 489.334 263.283 484.221C264.76 482.113 266.505 479.546 267.033 478.914C267.585 478.361 269.466 475.289 271.72 472.041C272.048 471.568 272.635 470.962 272.97 470.48C275.608 466.685 279.195 461.559 281.095 459.24C282.475 457.631 284.597 454.472 287.032 451.435C287.947 450.293 289.008 448.725 289.844 447.688C300.818 433.773 313.557 417.229 316.406 414.594C316.718 413.969 322.031 408.037 328.593 401.169C341.044 387.042 379.841 348.092 397.028 332.794C409.697 320.699 428.59 305.631 442.652 294.079C444.252 292.861 445.776 291.894 447.339 290.957C454.526 285.65 460.932 280.312 462.687 278.908L462.689 278.906L463.012 278.648C464.067 277.804 467.443 275.59 467.443 275.59L470.081 273.482C475.357 269.792 474.526 270.039 479.213 266.605C482.139 264.46 485.263 262.441 487.963 260.673C489.837 259.424 491.456 258.138 492.337 257.55C499.212 251.306 501.355 250.332 499.191 240.952C498.253 236.887 491.374 232.51 481.994 226.882C471.05 219.69 468.862 218.127 452.915 205.933C443.675 198.867 428.527 187.798 416.646 177.167C410.526 171.896 404.064 165.62 401.637 163.722C397.944 160.665 364.691 129.171 360.365 124.638C359.521 123.795 355.103 119.377 350.672 114.633C348.678 112.545 346.92 111.193 343.48 107.128C339.416 103.064 336.654 100.103 334.1 97.4354C323.469 86.8045 311.588 72.7343 305.647 65.5429C291.441 48.3459 275.943 25.8336 271.879 19.8928C269.346 16.0976 267.403 13.2281 266.876 12.7014C265.821 11.1197 265.957 11.6827 264.374 9.57464C262.264 6.41161 260.047 3.65905 255.932 1.44518C251.555 -1.05619 245.927 -0.118171 242.033 2.78439ZM276.402 72.5398C273.342 70.0093 267.597 66.6431 259.789 64.2184C246.81 60.1069 234.506 65.4917 222.319 73.6092C218.31 76.7719 214.84 79.4237 213.257 80.4779C210.302 82.3755 208.245 83.9366 201.07 90.1565C198.96 91.9487 194.629 95.2452 193.258 96.0885C182.008 105.143 147.869 137.998 137.634 148.541C118.885 167.853 112.948 175.079 104.47 184.927C100.46 189.566 97.9564 193.179 97.3233 193.811C96.6902 194.339 94.3283 197.42 92.3235 200.056C90.3187 202.691 87.3358 206.701 86.3862 207.861C79.0001 216.716 69.1181 230.385 67.3244 235.024C64.512 241.268 62.637 244.702 66.6994 255.005C67.568 257.208 68.8868 260.313 70.4493 263.123L73.5742 268.43L76.6991 273.114C77.7542 274.8 79.6981 277.983 81.3864 279.67C82.8636 281.673 83.241 282.354 84.8238 284.041C87.0112 286.373 117.635 324.316 137.322 341.176C181.383 387.071 228.256 424.977 241.068 426.722C247.943 427.659 252.631 432.654 272.63 418.605C274.107 417.445 280.572 413.042 286.692 408.614C292.812 404.186 297.625 399.982 297.942 399.56C298.258 399.244 300.754 397.687 303.879 394.564C307.361 391.823 310.539 389.265 311.066 388.632C311.699 388 317.056 383.264 321.066 379.89C337.94 365.693 368.877 337.117 392.626 309.33C394.42 307.116 398.32 302.608 401.063 299.339C405.811 294.068 418.538 279.078 420.437 276.548C428.984 264.635 435.011 256.862 435.749 250.01C436.066 245.898 435.894 240.485 433.256 234.897C431.463 231.208 428.93 226.78 427.559 224.988C409.813 198.182 390.414 178.278 384.189 172.269C383.344 171.425 379.85 167.837 377.001 164.463C370.127 156.97 342.057 128.495 332.683 119.441C328.568 115.751 323.552 111.035 320.176 107.872C316.799 104.709 313.297 101.617 312.672 100.68C311.722 100.153 305.929 96.2262 303.292 93.8015C296.539 87.7924 284.336 78.0697 283.281 77.5426C281.698 76.4883 278.09 73.699 276.402 72.5398Z" fill="black"/>
<path d="M241.692 76.1105C237.942 77.0472 228.255 85.1646 216.38 93.5944C208.568 99.5264 207.814 100.333 205.443 102.025C203.316 103.543 202.631 104.21 199.818 106.396C199.193 106.708 195.756 109.518 192.944 112.015C190.131 114.513 188.631 115.536 187.319 117.011C186.475 117.96 181.02 122.687 176.694 126.377C159.507 140.739 127.633 174.146 118.259 184.449C114.777 188.56 111.299 193.171 109.822 194.752C104.862 200.023 88.3206 220.37 83.5724 227.222C74.5102 238.15 74.1621 248.901 81.2317 260.287C86.824 269.142 111.937 299.187 126.814 314.79C133.251 321.432 143.883 332.535 143.883 332.75C153.882 343.99 196.381 381.768 210.131 392.695C241.452 417.588 238.255 415.799 252.942 416.735C258.879 415.799 261.379 414.55 280.753 399.876C294.19 389.885 295.805 387.935 307.94 377.709C314.19 372.089 321.425 366.003 325.752 361.786C331.376 356.791 337.797 350.579 340.751 348.049C354.188 337.121 379.187 309.646 388.874 298.407C390.563 296.087 394.187 292.162 394.499 291.85C395.124 291.226 403.943 280.55 406.686 277.176C410.749 271.556 416.374 266.249 421.686 255.946C424.535 250.042 424.75 240.522 421.373 234.091C417.68 227.028 393.521 197.436 380.437 182.888C376.533 178.566 369.748 172.317 366.688 168.838C354.553 155.239 336.739 138.119 303.29 108.812C284.842 94.4288 268.896 82.1682 261.705 77.8572C253.893 73.174 248.567 72.9884 241.692 76.1105ZM260.292 115.753C271.687 137.891 277.385 149.488 278.124 151.596C278.651 153.178 278.018 153.494 273.692 153.494C265.567 153.494 266.517 150.437 264.09 188.283C263.457 197.877 262.719 208.103 262.296 211.054C262.296 215.694 262.004 216.943 262.629 218.191C264.423 219.667 280.973 220.332 282.555 219.172C284.138 218.012 290.364 201.988 290.364 199.036C290.364 197.139 289.731 196.717 287.304 196.717C283.189 196.717 277.702 195.557 277.702 194.714C277.702 194.292 279.601 192.605 282.028 190.813C284.349 189.127 288.148 186.28 290.364 184.593C302.603 175.105 313.472 167.304 316.637 165.617C316.637 165.617 319.838 163.549 320.225 163.825C320.611 164.101 320.541 164.563 320.225 166.144C319.908 167.726 319.908 168.253 319.908 168.253C319.486 170.783 318.325 174.367 317.798 176.16C317.27 177.846 315.476 183.855 313.788 189.337C312.1 194.819 309.567 203.359 308.301 208.313C303.448 226.657 298.066 242.787 296.589 243.735C296.061 244.052 290.153 243.525 283.294 242.576C276.541 241.732 268.733 240.994 265.99 240.994C261.136 240.994 261.03 240.994 260.397 244.895C260.081 247.109 259.448 263.028 259.131 280.211L258.709 310.573H262.402C277.174 310.046 302.287 305.197 313.472 299.715C320.752 296.13 326.239 290.016 326.239 285.588C327.294 281.055 319.107 275.402 313.472 272.621C312.627 272.204 311.756 270.761 308.565 272.621C302.315 276.263 303.565 276.263 300.753 276.887C298.565 277.373 295.891 271.04 293.253 265.769C286.922 251.009 290.736 252.428 296.589 253.159C300.81 253.686 326.572 262.408 327.627 263.462C328.461 264.296 326.377 264.399 324.502 265.023C322.627 265.648 323.252 265.336 322.546 265.769C321.84 266.201 324.34 267.245 325.289 267.877C337.846 275.678 340.484 279.473 340.484 287.591C340.484 291.597 339.956 293.705 335.313 298.871C324.656 309.73 305.558 317.425 273.481 321.115C265.567 322.026 258.684 322.783 257.629 322.783C257.629 323.31 257.126 334.188 256.493 348.103C254.504 399.587 253.567 399.587 251.692 400.212C245.754 401.148 247.317 399.587 245.625 378.254C245.308 367.396 244.675 350.106 244.359 339.775L243.567 322.471C243.567 322.471 237.317 322.034 234.968 321.642C232.619 321.251 232.65 321.356 230.747 321.115C228.844 320.874 226.949 320.694 223.783 320.167C220.618 319.639 214.814 318.585 210.699 317.953C203.63 316.688 199.726 315.844 190.651 313.525C182.843 311.522 165.539 303.931 161.213 300.558C154.776 295.709 152.138 291.175 152.138 285.061C152.138 278.208 154.565 273.464 160.579 268.193C169.548 260.497 191.179 250.482 198.882 250.482C199.093 250.482 204.579 252.591 208.589 255.226C212.704 257.862 217.03 260.392 218.402 261.025C219.668 261.552 221.251 262.606 220.723 263.555C219.668 264.714 218.719 265.979 209.117 269.037C200.675 271.567 196.455 273.992 191.495 278.736C179.361 290.543 187.802 299.925 217.03 306.883C221.145 307.832 225.999 308.465 228.109 308.992C230.114 309.413 231.275 309.519 235.496 310.046C239.716 310.573 242.776 310.573 242.776 310.573V298.66C242.671 292.23 242.143 276.627 241.51 264.187C241.51 264.187 241.51 242.576 240.244 241.521C238.978 240.467 234.968 240.99 234.968 240.99C234.968 240.99 224.1 241.627 217.241 242.576C209.117 243.735 203.841 244.157 203.735 243.419C202.258 241.521 196.349 222.44 193.711 211.476C192.867 207.681 191.707 204.096 191.284 202.515C190.235 198.585 184.531 180.693 181.894 171.205C180.1 159.819 179.572 160.667 189.174 167.831C192.937 170.639 197.041 174.051 197.193 174.157C198.565 175.105 200.148 176.16 202.258 177.741C204.368 179.322 205.951 180.482 206.479 180.904C209.176 183.06 208.695 182.696 209.117 183.012C211.754 185.12 223.045 194.714 222.412 195.452C222.095 195.663 219.352 196.19 216.292 196.612C209.75 197.35 209.75 197.35 213.97 209.684C216.186 216.326 217.347 218.118 219.563 219.067C222.412 220.121 235.39 219.699 237.5 218.434C238.978 217.485 238.978 211.16 237.606 190.919C235.707 164.247 234.651 155.286 233.174 154.443C232.436 153.915 229.798 153.494 227.265 153.494H222.623L223.361 150.015C223.783 148.223 225.472 144.217 227.054 141.37C229.481 136.942 240.771 115.331 247.524 102.048C248.579 100.15 249.951 98.674 250.584 98.8848C251.323 99.0956 255.649 106.686 260.292 115.753Z" fill="black"/>
</svg>
