<svg width="102" height="102" viewBox="0 0 102 102" fill="none" xmlns="http://www.w3.org/2000/svg">
<path d="M81.8975 22.6537C76.245 20.0187 70.125 18.1062 63.75 17.0012C63.6941 16.9994 63.6385 17.0099 63.5871 17.0319C63.5357 17.0539 63.4898 17.087 63.4525 17.1287C62.6875 18.5312 61.795 20.3587 61.2 21.7612C54.4383 20.7412 47.5618 20.7412 40.8 21.7612C40.205 20.3162 39.3125 18.5312 38.505 17.1287C38.4625 17.0437 38.335 17.0012 38.2075 17.0012C31.8325 18.1062 25.755 20.0187 20.06 22.6537C20.0175 22.6537 19.975 22.6962 19.9325 22.7387C8.37251 40.0362 5.18501 56.8662 6.75751 73.5262C6.75751 73.6112 6.80001 73.6962 6.88501 73.7387C14.535 79.3487 21.8875 82.7487 29.155 85.0012C29.2825 85.0437 29.41 85.0012 29.4525 84.9162C31.1525 82.5787 32.6825 80.1137 34 77.5212C34.085 77.3512 34 77.1812 33.83 77.1387C31.4075 76.2037 29.1125 75.0987 26.86 73.8237C26.69 73.7387 26.69 73.4837 26.8175 73.3562C27.285 73.0162 27.7525 72.6337 28.22 72.2937C28.305 72.2087 28.4325 72.2087 28.5175 72.2512C43.1375 78.9237 58.905 78.9237 73.355 72.2512C73.44 72.2087 73.5675 72.2087 73.6525 72.2937C74.12 72.6762 74.5875 73.0162 75.055 73.3987C75.225 73.5262 75.225 73.7812 75.0125 73.8662C72.8025 75.1837 70.465 76.2462 68.0425 77.1812C67.8725 77.2237 67.83 77.4362 67.8725 77.5637C69.2325 80.1562 70.7625 82.6212 72.42 84.9587C72.5475 85.0012 72.675 85.0437 72.8025 85.0012C80.1125 82.7487 87.465 79.3487 95.115 73.7387C95.2 73.6962 95.2425 73.6112 95.2425 73.5262C97.1125 54.2737 92.14 37.5712 82.0675 22.7387C82.025 22.6962 81.9825 22.6537 81.8975 22.6537ZM36.21 63.3687C31.8325 63.3687 28.1775 59.3312 28.1775 54.3587C28.1775 49.3862 31.7475 45.3487 36.21 45.3487C40.715 45.3487 44.285 49.4287 44.2425 54.3587C44.2425 59.3312 40.6725 63.3687 36.21 63.3687ZM65.8325 63.3687C61.455 63.3687 57.8 59.3312 57.8 54.3587C57.8 49.3862 61.37 45.3487 65.8325 45.3487C70.3375 45.3487 73.9075 49.4287 73.865 54.3587C73.865 59.3312 70.3375 63.3687 65.8325 63.3687Z" fill="white"/>
</svg>
