<svg width="87" height="87" viewBox="0 0 87 87" fill="none" xmlns="http://www.w3.org/2000/svg">
<path d="M75.7625 7.25H11.2375C10.1799 7.25 9.16571 7.67011 8.41791 8.41791C7.67011 9.16571 7.25 10.1799 7.25 11.2375V75.7625C7.25 76.82 7.67011 77.8343 8.41791 78.5821C9.16571 79.3299 10.1799 79.75 11.2375 79.75H45.965V51.6562H36.54V40.7812H45.965V32.625C45.7698 30.7101 45.9958 28.7757 46.6273 26.9574C47.2589 25.1392 48.2805 23.4811 49.6207 22.0995C50.9608 20.7179 52.5871 19.6462 54.3852 18.9596C56.1834 18.273 58.1101 17.9882 60.03 18.125C62.8514 18.1076 65.6715 18.2529 68.4762 18.56V28.3475H62.7125C58.145 28.3475 57.275 30.5225 57.275 33.6762V40.6725H68.15L66.7362 51.5475H57.275V79.75H75.7625C76.2861 79.75 76.8047 79.6469 77.2884 79.4465C77.7722 79.2461 78.2118 78.9524 78.5821 78.5821C78.9524 78.2118 79.2461 77.7722 79.4465 77.2884C79.6469 76.8047 79.75 76.2861 79.75 75.7625V11.2375C79.75 10.7139 79.6469 10.1953 79.4465 9.71155C79.2461 9.22776 78.9524 8.78819 78.5821 8.41791C78.2118 8.04764 77.7722 7.75392 77.2884 7.55353C76.8047 7.35314 76.2861 7.25 75.7625 7.25Z" fill="white"/>
</svg>
